<?xml version="1.0" encoding="UTF-8"?>
<svg version="1.1" xmlns="http://www.w3.org/2000/svg" width="98" height="43">
<path d="M0 0 C4.43118719 2.13646525 7.2290203 4.37577522 9 9 C9.66198068 14.34488104 9.67332051 18.60348339 7.3125 23.5 C3.24765156 27.89443074 0.53610427 29.18657624 -5.4375 29.4375 C-10.55372982 29.31996499 -13.16088393 28.3203166 -17 25 C-16.505 23.515 -16.505 23.515 -16 22 C-13.525 22.99 -13.525 22.99 -11 24 C-11 21.36 -11 18.72 -11 16 C-12.65 16 -14.3 16 -16 16 C-15.67 13.69 -15.34 11.38 -15 9 C-11.22713656 7.64176916 -8.67863448 6.88476018 -4.6875 7.5625 C-2 9 -2 9 -0.5625 11.5 C0 14 0 14 -1 16 C-2.65 16 -4.3 16 -6 16 C-5.67 18.31 -5.34 20.62 -5 23 C-2.07552588 20.64155313 -1.06535091 19.23962001 -0.0625 15.5625 C0.00754154 11.57013213 -0.53534746 10.08081567 -3 7 C-6.31371 4.79086 -7.3446021 4.77518447 -11.1875 4.875 C-12.53908203 4.90207031 -12.53908203 4.90207031 -13.91796875 4.9296875 C-14.94857422 4.96449219 -14.94857422 4.96449219 -16 5 C-16 4.34 -16 3.68 -16 3 C-11.45172254 -1.077766 -5.74519016 -0.75927623 0 0 Z " fill="#ACCE3C" transform="translate(17,13)"/>
<path d="M0 0 C5.13308791 2.61320839 8.1797908 5.53937241 10 11 C10.39614654 16.24894167 9.86557317 19.55342094 7 24 C2.0748884 28.44461291 -0.946975 29.34552192 -7.44921875 29.2890625 C-11.13118006 28.87181114 -13.27560087 27.44497358 -16 25 C-16.33 24.01 -16.66 23.02 -17 22 C-14.36 22.66 -11.72 23.32 -9 24 C-9 23.01 -9 22.02 -9 21 C-9.66 21 -10.32 21 -11 21 C-12.38226016 18.23547967 -12.09525387 15.9538637 -12.0625 12.875 C-12.05347656 11.77929688 -12.04445313 10.68359375 -12.03515625 9.5546875 C-12.02355469 8.71164063 -12.01195312 7.86859375 -12 7 C-10.52093108 6.97310784 -9.04172517 6.95365379 -7.5625 6.9375 C-6.73878906 6.92589844 -5.91507813 6.91429687 -5.06640625 6.90234375 C-3 7 -3 7 -2 8 C-1.45417784 13.66815318 -1.29791502 18.37239378 -5 23 C-1.38045014 20.13334541 -1.38045014 20.13334541 0.47265625 16.02734375 C0.62582956 12.46439933 0.30855361 10.4011197 -1.875 7.5625 C-5.20424667 5.11452451 -7.03337837 4.88504331 -11.125 4.9375 C-12.03507812 4.94652344 -12.94515625 4.95554687 -13.8828125 4.96484375 C-14.93082031 4.98224609 -14.93082031 4.98224609 -16 5 C-10.89921712 -0.27080898 -7.2479707 -0.81275247 0 0 Z " fill="#ED3947" transform="translate(50,13)"/>
<path d="M0 0 C5.13308791 2.61320839 8.1797908 5.53937241 10 11 C10.39614654 16.24894167 9.86557317 19.55342094 7 24 C2.0748884 28.44461291 -0.946975 29.34552192 -7.44921875 29.2890625 C-11.13118006 28.87181114 -13.27560087 27.44497358 -16 25 C-16.33 24.01 -16.66 23.02 -17 22 C-14.69 22.66 -12.38 23.32 -10 24 C-10 18.06 -10 12.12 -10 6 C-8.68 5.67 -7.36 5.34 -6 5 C-9.3 5 -12.6 5 -16 5 C-10.89921712 -0.27080898 -7.2479707 -0.81275247 0 0 Z M-3 6 C-3 11.28 -3 16.56 -3 22 C1.28934749 18.52688344 1.28934749 18.52688344 1.4375 14.5625 C0.98564184 10.88308354 0.22033173 8.93083788 -2 6 C-2.33 6 -2.66 6 -3 6 Z " fill="#F8BC45" transform="translate(85,13)"/>
<path d="M0 0 C2.31 0 4.62 0 7 0 C7 4.62 7 9.24 7 14 C6.01 14 5.02 14 4 14 C4 14.99 4 15.98 4 17 C4.66 17.66 5.32 18.32 6 19 C4.02 19 2.04 19 0 19 C0 12.73 0 6.46 0 0 Z " fill="#F9B33F" transform="translate(75,19)"/>
<path d="M0 0 C-1.33963255 7.42887139 -1.33963255 7.42887139 -4.3125 10 C-7.13601367 11.05060974 -9.01845517 11.15289973 -12 11 C-13.33978468 11.30637544 -14.67477273 11.63577263 -16 12 C-15.54917531 10.53932801 -15.08906463 9.08151968 -14.625 7.625 C-14.36976562 6.81289062 -14.11453125 6.00078125 -13.8515625 5.1640625 C-13 3 -13 3 -11 1 C-7.25676478 0.40583568 -3.78305096 0 0 0 Z " fill="#A9CF38" transform="translate(94,0)"/>
<path d="M0 0 C-1.33963255 7.42887139 -1.33963255 7.42887139 -4.3125 10 C-7.13601367 11.05060974 -9.01845517 11.15289973 -12 11 C-13.33978468 11.30637544 -14.67477273 11.63577263 -16 12 C-15.54917531 10.53932801 -15.08906463 9.08151968 -14.625 7.625 C-14.36976562 6.81289062 -14.11453125 6.00078125 -13.8515625 5.1640625 C-13 3 -13 3 -11 1 C-8.90625 0.5859375 -8.90625 0.5859375 -6.5 0.375 C-5.7059375 0.30023437 -4.911875 0.22546875 -4.09375 0.1484375 C-2.7316886 0.05187345 -1.36548008 0 0 0 Z " fill="#8DB414" transform="translate(23,0)"/>
<path d="M0 0 C-0.2366364 4.10169759 -0.43990599 6.35989257 -3.1875 9.5 C-6.63992625 11.341294 -8.29768896 11.03320308 -12 10 C-12 10.66 -12 11.32 -12 12 C-12.99 12 -13.98 12 -15 12 C-14.01 8.7 -13.02 5.4 -12 2 C-2.25 0 -2.25 0 0 0 Z " fill="#A8CB35" transform="translate(58,0)"/>
<path d="M0 0 C1.5 2.5 1.5 2.5 2 5 C1.67 5.66 1.34 6.32 1 7 C-3.95 7 -8.9 7 -14 7 C-13.67 4.69 -13.34 2.38 -13 0 C-8.01432326 -2.18883369 -5.00852458 -2.21530895 0 0 Z " fill="#739A05" transform="translate(15,22)"/>
<path d="M0 0 C0.33 0.66 0.66 1.32 1 2 C-0.68474722 5.36949443 -1.8191658 6.87944386 -5 9 C-8.1875 8.625 -8.1875 8.625 -11 8 C-9.98244259 5.33869601 -9.33315139 4.19483944 -6.8359375 2.734375 C-5.61777344 2.24710937 -5.61777344 2.24710937 -4.375 1.75 C-3.55773438 1.41484375 -2.74046875 1.0796875 -1.8984375 0.734375 C-0.95871094 0.37085938 -0.95871094 0.37085938 0 0 Z " fill="#ACCD3B" transform="translate(57,2)"/>
<path d="M0 0 C0.6875 1.75 0.6875 1.75 1 4 C-0.0625 6.1875 -0.0625 6.1875 -2 8 C-7.22666667 9.38666667 -7.22666667 9.38666667 -10 8 C-9.4375 6.1875 -9.4375 6.1875 -8 4 C-4.4375 2.3125 -4.4375 2.3125 -1 1 C-0.67 0.67 -0.34 0.34 0 0 Z " fill="#ADCE39" transform="translate(21,2)"/>
<path d="M0 0 C0 0.99 0 1.98 0 3 C-4.29 3 -8.58 3 -13 3 C-13 2.01 -13 1.02 -13 0 C-7.95531271 -2.21474076 -5.14089313 -1.85072153 0 0 Z " fill="#B2CE53" transform="translate(15,22)"/>
<path d="M0 0 C-3.14487876 2.66105126 -6.10134989 3.75574996 -10 5 C-10.99 5.66 -11.98 6.32 -13 7 C-12.25 2.25 -12.25 2.25 -10 0 C-8.125 -0.44921875 -8.125 -0.44921875 -6 -0.6875 C-4.948125 -0.81705078 -4.948125 -0.81705078 -3.875 -0.94921875 C-2 -1 -2 -1 0 0 Z " fill="#ADCC40" transform="translate(93,1)"/>
<path d="M0 0 C2.31 0 4.62 0 7 0 C7 1.65 7 3.3 7 5 C4.69 5 2.38 5 0 5 C0 3.35 0 1.7 0 0 Z " fill="#F6A91E" transform="translate(75,19)"/>
<path d="M0 0 C2.05078125 0.03255208 4.1015625 0.06510417 6.15234375 0.09765625 C3.71464759 3.7542005 2.23918647 3.84658195 -1.84765625 5.09765625 C-2.83765625 5.75765625 -3.82765625 6.41765625 -4.84765625 7.09765625 C-2.62675581 0.13883487 -2.62675581 0.13883487 0 0 Z " fill="#B0CF42" transform="translate(13.84765625,0.90234375)"/>
<path d="M0 0 C-2 2 -2 2 -4.9375 2.8125 C-8.63100425 4.24467512 -9.14085814 5.63583853 -11 9 C-11.99 9 -12.98 9 -14 9 C-12.00432844 4.34343304 -9.57957026 1.66341951 -4.875 -0.3125 C-2 -1 -2 -1 0 0 Z " fill="#88AF10" transform="translate(92,3)"/>
<path d="M0 0 C-0.598125 0.268125 -1.19625 0.53625 -1.8125 0.8125 C-5.31088537 2.71162349 -6.73345454 4.20036361 -8 8 C-8.99 8 -9.98 8 -11 8 C-9.04672006 1.97738686 -6.47971237 -0.53997603 0 0 Z " fill="#87AF0F" transform="translate(54,4)"/>
</svg>
